<?xml version="1.0" encoding="utf-8"?>
<!-- Svg Vector Icons : http://www.onlinewebfonts.com/icon -->
<!DOCTYPE svg PUBLIC "-//W3C//DTD SVG 1.1//EN" "http://www.w3.org/Graphics/SVG/1.1/DTD/svg11.dtd">
<svg version="1.1" xmlns="http://www.w3.org/2000/svg" xmlns:xlink="http://www.w3.org/1999/xlink" x="0px" y="0px" viewBox="0 0 1000 1000" enable-background="new 0 0 1000 1000" xml:space="preserve">
<metadata> Svg Vector Icons : http://www.onlinewebfonts.com/icon </metadata>
<g><path d="M987.4,567.4c-4.5-8.3-13.9-12.5-23.1-10.5L761.9,601L664,546.3c50.3-84.7,85.4-172.7,85.4-243.9C749.3,172.6,643.7,67,513.8,67c-129.8,0-235.4,105.6-235.4,235.5c0,70.1,33.1,156.4,80.9,239l-46.1,16.1c-3,1-5.7,2.8-8,5L16.2,851.5c-7,7.1-8.2,18-2.9,26.4c3.9,6.3,10.8,9.9,18,9.9c2.3,0,4.7-0.4,6.9-1.3l209.9-73.5l211.6,117.5c3,1.7,6.5,2.5,9.9,2.5c0.9,0,1.8-0.4,2.7-0.6c1-0.1,1.9-0.1,2.8-0.3l212.8-46.4c4-0.8,7.7-2.9,10.6-5.8l285.3-287.3C990.4,586,991.9,575.7,987.4,567.4 M723.6,628.3L466.9,885.2L285.8,784.6l141.1-141c23.2,30.7,47.3,59.6,71.6,84.9c3.9,4.3,9.5,6.6,15.3,6.6h0.3c5.9-0.1,11.4-2.7,15.5-6.9c38.8-43,77.7-93.2,111.9-145.8L723.6,628.3L723.6,628.3z M513.8,109.5c106.5,0,193.1,86.7,193.1,193c0,68.4-38.5,157-91.1,241.1c0,0.1-0.1,0.1-0.1,0.2v0.1c-31,49.5-66.7,97.4-102.2,138.4c-98.3-108.7-192.7-268.5-192.7-379.7C320.8,196.2,407.4,109.5,513.8,109.5 M331.7,596.1l49.9-17.5c6.5,10.2,13.2,20.2,20.1,30L239.3,771l-127.2,44.5L331.7,596.1L331.7,596.1z M672.7,845.6l-135.9,29.6l232.3-232.3L903,613.7L672.7,845.6L672.7,845.6z"/><path d="M644.9,302c0-72.2-58.8-131-131.1-131c-72.2,0-131,58.8-131,131c0,72.3,58.8,131.1,131,131.1C586.1,433.1,644.9,374.3,644.9,302 M425.1,302c0-48.8,39.7-88.6,88.5-88.6c49,0,88.8,39.7,88.8,88.6c0,49-39.8,88.6-88.8,88.6C464.9,390.5,425.1,350.9,425.1,302z"/></g>
</svg>